<svg width="821" height="300" viewBox="0 0 821 300" fill="none" xmlns="http://www.w3.org/2000/svg">
<path d="M334 227C326.133 227 318.933 225.2 312.4 221.6C305.867 218 300.6 213 296.6 206.6C295.4 204.6 294.8 202.733 294.8 201C294.8 198.2 295.867 195.867 298 194C300.133 192.133 302.267 191.2 304.4 191.2C306.267 191.2 307.933 191.733 309.4 192.8C311 193.733 312.467 194.933 313.8 196.4C316.467 199.867 319.467 202.533 322.8 204.4C326.133 206.133 329.867 207 334 207C338.8 207 343.133 205.933 347 203.8C350.867 201.533 353.933 198.533 356.2 194.8C358.467 190.933 359.6 186.733 359.6 182.2V95.2C359.6 92.2667 360.667 89.8667 362.8 88C364.933 86 367.4 85 370.2 85C373.267 85 375.733 86 377.6 88C379.467 89.8667 380.4 92.2667 380.4 95.2V182.2C380.4 190.333 378.333 197.8 374.2 204.6C370.2 211.4 364.667 216.867 357.6 221C350.667 225 342.8 227 334 227ZM429.519 214.8C429.519 217.733 428.585 220.2 426.719 222.2C424.852 224.067 422.452 225 419.519 225C416.719 225 414.319 224.067 412.319 222.2C410.452 220.2 409.519 217.733 409.519 214.8V129.2C409.519 126.267 410.452 123.867 412.319 122C414.319 120 416.719 119 419.519 119C422.452 119 424.852 120 426.719 122C428.585 123.867 429.519 126.267 429.519 129.2V214.8ZM419.319 105.8C415.452 105.8 412.652 105.133 410.919 103.8C409.185 102.333 408.319 99.9333 408.319 96.6V93.4C408.319 90.0667 409.252 87.7333 411.119 86.4C412.985 85.0667 415.785 84.4 419.519 84.4C423.519 84.4 426.385 85.1333 428.119 86.6C429.852 87.9333 430.719 90.2 430.719 93.4V96.6C430.719 100.067 429.785 102.467 427.919 103.8C426.185 105.133 423.319 105.8 419.319 105.8ZM510.622 117.4C520.089 117.4 527.422 119.4 532.622 123.4C537.822 127.267 541.422 132.533 543.422 139.2C545.555 145.733 546.622 153.067 546.622 161.2V214.8C546.622 217.733 545.622 220.2 543.622 222.2C541.755 224.067 539.422 225 536.622 225C533.689 225 531.289 224.067 529.422 222.2C527.555 220.2 526.622 217.733 526.622 214.8V161.4C526.622 156.6 525.955 152.333 524.622 148.6C523.289 144.733 520.955 141.667 517.622 139.4C514.422 137 509.889 135.8 504.022 135.8C498.555 135.8 493.755 137 489.622 139.4C485.489 141.667 482.222 144.733 479.822 148.6C477.555 152.333 476.422 156.6 476.422 161.4V214.8C476.422 217.733 475.422 220.2 473.422 222.2C471.555 224.067 469.222 225 466.422 225C463.489 225 461.089 224.067 459.222 222.2C457.355 220.2 456.422 217.733 456.422 214.8V130C456.422 127.067 457.355 124.667 459.222 122.8C461.089 120.8 463.489 119.8 466.422 119.8C469.222 119.8 471.555 120.8 473.422 122.8C475.422 124.667 476.422 127.067 476.422 130V141.2L472.822 143.2C473.755 140.267 475.355 137.333 477.622 134.4C480.022 131.333 482.889 128.533 486.222 126C489.555 123.333 493.289 121.267 497.422 119.8C501.555 118.2 505.955 117.4 510.622 117.4ZM660.591 118.2C663.524 118.2 665.924 119.2 667.791 121.2C669.657 123.067 670.591 125.467 670.591 128.4V214.8C670.591 217.733 669.657 220.2 667.791 222.2C665.924 224.067 663.524 225 660.591 225C657.791 225 655.391 224.067 653.391 222.2C651.524 220.2 650.591 217.733 650.591 214.8V200.4L654.791 201C654.791 203.4 653.791 206.067 651.791 209C649.924 211.933 647.324 214.8 643.991 217.6C640.657 220.267 636.724 222.533 632.191 224.4C627.657 226.133 622.791 227 617.591 227C608.391 227 600.124 224.667 592.791 220C585.457 215.2 579.657 208.667 575.391 200.4C571.124 192.133 568.991 182.733 568.991 172.2C568.991 161.4 571.124 151.933 575.391 143.8C579.657 135.533 585.391 129.067 592.591 124.4C599.924 119.733 608.057 117.4 616.991 117.4C622.724 117.4 627.991 118.333 632.791 120.2C637.724 122.067 641.991 124.467 645.591 127.4C649.191 130.333 651.924 133.467 653.791 136.8C655.791 140 656.791 143.067 656.791 146L650.591 146.6V128.4C650.591 125.6 651.524 123.2 653.391 121.2C655.391 119.2 657.791 118.2 660.591 118.2ZM619.791 208.6C626.057 208.6 631.591 207 636.391 203.8C641.191 200.6 644.924 196.267 647.591 190.8C650.257 185.2 651.591 179 651.591 172.2C651.591 165.267 650.257 159.067 647.591 153.6C644.924 148.133 641.191 143.8 636.391 140.6C631.591 137.4 626.057 135.8 619.791 135.8C613.657 135.8 608.191 137.4 603.391 140.6C598.724 143.8 594.991 148.133 592.191 153.6C589.524 159.067 588.191 165.267 588.191 172.2C588.191 179 589.524 185.2 592.191 190.8C594.991 196.267 598.724 200.6 603.391 203.8C608.191 207 613.657 208.6 619.791 208.6ZM706.209 224.8C702.876 224.8 700.276 223.867 698.409 222C696.676 220.133 695.809 217.533 695.809 214.2V210.6C695.809 207.267 696.676 204.667 698.409 202.8C700.276 200.933 702.876 200 706.209 200H708.409C711.743 200 714.276 200.933 716.009 202.8C717.743 204.667 718.609 207.267 718.609 210.6V214.2C718.609 217.533 717.743 220.133 716.009 222C714.276 223.867 711.743 224.8 708.409 224.8H706.209Z" fill="white"/>
<path d="M717.4 69.1C719.08 67.3267 721.18 65.8333 723.7 64.62C726.267 63.4067 729.02 62.8 731.96 62.8C734.9 62.8 737.513 63.43 739.8 64.69C742.087 65.95 743.86 67.7467 745.12 70.08C746.38 72.4133 747.01 75.1433 747.01 78.27C747.01 79.6233 746.87 81.0467 746.59 82.54C745.89 86.4133 744.467 89.89 742.32 92.97C740.22 96.0033 737.63 98.3833 734.55 100.11C731.517 101.79 728.32 102.63 724.96 102.63C722.02 102.63 719.5 102.047 717.4 100.88C715.347 99.6667 713.737 98.1733 712.57 96.4L708.37 120.34H700.39L710.4 63.43H718.38L717.4 69.1ZM738.47 82.54C738.657 81.6533 738.75 80.6967 738.75 79.67C738.75 76.5433 737.817 74.1167 735.95 72.39C734.13 70.6167 731.82 69.73 729.02 69.73C727.013 69.73 725.007 70.2433 723 71.27C721.04 72.2967 719.337 73.79 717.89 75.75C716.443 77.71 715.487 80.02 715.02 82.68C714.833 83.5667 714.74 84.5233 714.74 85.55C714.74 88.6767 715.65 91.15 717.47 92.97C719.337 94.79 721.647 95.7 724.4 95.7C726.453 95.7 728.46 95.1867 730.42 94.16C732.427 93.0867 734.153 91.5467 735.6 89.54C737.047 87.5333 738.003 85.2 738.47 82.54ZM764.631 70.22C766.218 67.8867 768.085 66.0667 770.231 64.76C772.425 63.4533 774.851 62.8 777.511 62.8L776.041 71.06H774.011C770.931 71.06 768.458 71.83 766.591 73.37C764.725 74.91 763.418 77.57 762.671 81.35L759.031 102H751.051L757.841 63.43H765.821L764.631 70.22ZM794.787 102.63C791.52 102.63 788.65 101.953 786.177 100.6C783.703 99.2467 781.767 97.3333 780.367 94.86C779.013 92.3867 778.337 89.5633 778.337 86.39C778.337 82.05 779.34 78.0833 781.347 74.49C783.4 70.8967 786.2 68.05 789.747 65.95C793.34 63.85 797.33 62.8 801.717 62.8C804.983 62.8 807.877 63.5 810.397 64.9C812.917 66.2533 814.877 68.1667 816.277 70.64C817.723 73.0667 818.447 75.89 818.447 79.11C818.447 83.45 817.397 87.4167 815.297 91.01C813.197 94.6033 810.35 97.45 806.757 99.55C803.163 101.603 799.173 102.63 794.787 102.63ZM795.767 95.91C798.427 95.91 800.853 95.1633 803.047 93.67C805.287 92.13 807.037 90.1233 808.297 87.65C809.557 85.13 810.187 82.4467 810.187 79.6C810.187 76.38 809.277 73.9067 807.457 72.18C805.637 70.4067 803.35 69.52 800.597 69.52C797.89 69.52 795.463 70.29 793.317 71.83C791.217 73.3233 789.56 75.3533 788.347 77.92C787.18 80.44 786.597 83.1467 786.597 86.04C786.597 89.1667 787.437 91.5933 789.117 93.32C790.843 95.0467 793.06 95.91 795.767 95.91Z" fill="#7F6BFC"/>
<path d="M273.375 143.75L217.125 46.375C216.024 44.4675 214.438 42.8848 212.528 41.7872C210.618 40.6897 208.453 40.1163 206.25 40.125H93.75C91.5474 40.1163 89.3815 40.6897 87.4718 41.7872C85.5621 42.8848 83.9763 44.4675 82.875 46.375L26.625 143.75C25.5279 145.65 24.9503 147.806 24.9503 150C24.9503 152.194 25.5279 154.35 26.625 156.25L82.875 253.625C83.9763 255.533 85.5621 257.115 87.4718 258.213C89.3815 259.31 91.5474 259.884 93.75 259.875H206.25C208.453 259.884 210.618 259.31 212.528 258.213C214.438 257.115 216.024 255.533 217.125 253.625L273.375 156.25C274.472 154.35 275.05 152.194 275.05 150C275.05 147.806 274.472 145.65 273.375 143.75ZM198.375 234.875H101L51.875 150L101 65.125H199L248.125 150L198.375 234.875Z" fill="white"/>
<path d="M204.167 139.708C204.708 137 202.542 133.75 199.833 133.75L168.958 129.417L154.875 101.25C154.333 100.167 153.792 99.625 152.708 99.0833C150 97.4583 146.75 98.5417 145.125 101.25L131.583 129.417L100.708 133.75C99.0833 133.75 98 134.292 97.4583 135.375C95.2917 137.542 95.2917 140.792 97.4583 142.958L119.667 164.625L114.25 195.5C114.25 196.583 114.25 197.667 114.792 198.75C116.417 201.458 119.667 202.542 122.375 200.917L150 186.292L177.625 200.917C178.167 201.458 179.25 201.458 180.333 201.458C180.875 201.458 180.875 201.458 181.417 201.458C184.125 200.917 186.292 198.208 185.75 194.958L180.333 164.083L202.542 142.417C203.625 141.875 204.167 140.792 204.167 139.708Z" fill="white"/>
</svg>
