<svg width="300" height="300" viewBox="0 0 300 300" fill="none" xmlns="http://www.w3.org/2000/svg">
<path d="M273.375 143.75L217.125 46.375C216.024 44.4675 214.438 42.8848 212.528 41.7872C210.618 40.6897 208.453 40.1163 206.25 40.125H93.75C91.5474 40.1163 89.3815 40.6897 87.4718 41.7872C85.5621 42.8848 83.9763 44.4675 82.875 46.375L26.625 143.75C25.5279 145.65 24.9503 147.806 24.9503 150C24.9503 152.194 25.5279 154.35 26.625 156.25L82.875 253.625C83.9763 255.533 85.5621 257.115 87.4718 258.213C89.3815 259.31 91.5474 259.884 93.75 259.875H206.25C208.453 259.884 210.618 259.31 212.528 258.213C214.438 257.115 216.024 255.533 217.125 253.625L273.375 156.25C274.472 154.35 275.05 152.194 275.05 150C275.05 147.806 274.472 145.65 273.375 143.75ZM198.375 234.875H101L51.875 150L101 65.125H199L248.125 150L198.375 234.875Z" fill="white"/>
<path d="M204.167 139.708C204.708 137 202.542 133.75 199.833 133.75L168.958 129.417L154.875 101.25C154.333 100.167 153.792 99.625 152.708 99.0833C150 97.4583 146.75 98.5417 145.125 101.25L131.583 129.417L100.708 133.75C99.0833 133.75 98 134.292 97.4583 135.375C95.2917 137.542 95.2917 140.792 97.4583 142.958L119.667 164.625L114.25 195.5C114.25 196.583 114.25 197.667 114.792 198.75C116.417 201.458 119.667 202.542 122.375 200.917L150 186.292L177.625 200.917C178.167 201.458 179.25 201.458 180.333 201.458C180.875 201.458 180.875 201.458 181.417 201.458C184.125 200.917 186.292 198.208 185.75 194.958L180.333 164.083L202.542 142.417C203.625 141.875 204.167 140.792 204.167 139.708Z" fill="white"/>
</svg>
